<svg xmlns="http://www.w3.org/2000/svg" viewBox="0 0 89.3 89.13"><defs><style>.cls-1{fill:#22020e;}.cls-2{fill:#40ffde;}</style></defs><g id="Layer_2" data-name="Layer 2"><g id="Layer_1-2" data-name="Layer 1"><path class="cls-1" d="M65.94,34.84a20.72,20.72,0,0,0-4.89.59,20.36,20.36,0,1,0-32.8,0,20.66,20.66,0,0,0-4.89-.59A20.36,20.36,0,1,0,41.9,63.62V86.13h5.5V63.62A20.36,20.36,0,1,0,65.94,34.84Z"/><path class="cls-2" d="M44.65,3a20.36,20.36,0,0,1,16.4,32.43,20.72,20.72,0,0,1,4.89-.59A20.36,20.36,0,1,1,47.4,63.62V86.13H41.9V63.62A20.36,20.36,0,1,1,23.36,34.84a20.66,20.66,0,0,1,4.89.59A20.36,20.36,0,0,1,44.65,3m0-3A23.39,23.39,0,0,0,22.87,31.84a23.36,23.36,0,1,0,16,40.79v16.5H50.4V72.63a23.36,23.36,0,1,0,16-40.79A23.39,23.39,0,0,0,44.65,0Z"/></g></g></svg>