<svg xmlns="http://www.w3.org/2000/svg" viewBox="0 0 84.95 91.34"><defs><style>.cls-1{fill:#22020e;}.cls-2{fill:#d32064;}</style></defs><g id="Layer_2" data-name="Layer 2"><g id="Layer_1-2" data-name="Layer 1"><path class="cls-1" d="M62.21,3A19.73,19.73,0,0,0,42.48,22.74,19.74,19.74,0,0,0,3,22.74,23.31,23.31,0,0,0,7.26,36.17l35.22,50,35.21-50A23.24,23.24,0,0,0,82,22.74,19.74,19.74,0,0,0,62.21,3Z"/><path class="cls-2" d="M62.21,3A19.74,19.74,0,0,1,82,22.74a23.24,23.24,0,0,1-4.26,13.43l-35.21,50-35.22-50A23.31,23.31,0,0,1,3,22.74a19.74,19.74,0,0,1,39.48,0A19.73,19.73,0,0,1,62.21,3m0-3A22.74,22.74,0,0,0,42.48,11.46,22.74,22.74,0,0,0,0,22.74,26.16,26.16,0,0,0,4.81,37.9L40,87.86l2.46,3.48,2.45-3.48,35.22-50A26.22,26.22,0,0,0,85,22.74,22.76,22.76,0,0,0,62.21,0Z"/></g></g></svg>