<svg xmlns="http://www.w3.org/2000/svg" viewBox="0 0 75.51 91.17"><defs><style>.cls-1{fill:#22020e;}.cls-2{fill:#40ffde;}</style></defs><g id="Layer_2" data-name="Layer 2"><g id="Layer_1-2" data-name="Layer 1"><path class="cls-1" d="M68.52,46.56,37.76,5,7,46.56A20.33,20.33,0,0,0,3,58.65a16.12,16.12,0,0,0,31.61,4.44V88.17H40.9V63.09a16.12,16.12,0,0,0,31.61-4.44A20.33,20.33,0,0,0,68.52,46.56Z"/><path class="cls-2" d="M37.76,5,68.52,46.56a20.33,20.33,0,0,1,4,12.09A16.12,16.12,0,0,1,40.9,63.09V88.17H34.61V63.09A16.12,16.12,0,0,1,3,58.65,20.33,20.33,0,0,1,7,46.56L37.76,5m0-5L35.35,3.25,4.58,44.77A23.51,23.51,0,0,0,0,58.65,19.1,19.1,0,0,0,31.61,73.1V91.17H43.9V73.1A19.1,19.1,0,0,0,75.51,58.65a23.45,23.45,0,0,0-4.58-13.88L40.17,3.25,37.76,0Z"/></g></g></svg>